<svg xmlns="http://www.w3.org/2000/svg" xmlns:xlink="http://www.w3.org/1999/xlink" width="80.908" height="89.355" viewBox="0 0 80.908 89.355">
  <defs>
    <clipPath id="clip-path">
      <rect id="長方形_62" data-name="長方形 62" width="80.908" height="89.355"/>
    </clipPath>
  </defs>
  <g id="グループ_177" data-name="グループ 177" clip-path="url(#clip-path)">
    <text id="鍼灸タネノネ" transform="translate(7.908 81.954)" font-size="9" font-family="HiraginoSans-W3, Hiragino Sans"><tspan x="0" y="0" letter-spacing="0.1em">鍼灸タネノ</tspan><tspan y="0">ネ</tspan></text>
    <path id="前面オブジェクトで型抜き_1" data-name="前面オブジェクトで型抜き 1" d="M31.919,64.547h0a4.625,4.625,0,0,1-2.445-1.4c-2.447-2.489-4.209-8.094-5.1-16.211a106.748,106.748,0,0,1-.594-11.809.784.784,0,0,0-.769-.8H23a.787.787,0,0,0-.782.77,108.406,108.406,0,0,0,.6,11.989,59.265,59.265,0,0,0,1.763,9.655c.976,3.423,2.245,5.946,3.773,7.5l.02.02.02.02a20.185,20.185,0,0,1-4.69-1.348,17.118,17.118,0,0,1-5.992-4.3,21.933,21.933,0,0,1-4.2-7.223,34.743,34.743,0,0,1-1.777-7.661,42.246,42.246,0,0,1-.195-8.558.783.783,0,0,0-.7-.861.794.794,0,0,0-.084,0,.781.781,0,0,0-.778.7,42.941,42.941,0,0,0,.193,8.873,36.336,36.336,0,0,0,1.856,8.023,23.506,23.506,0,0,0,4.514,7.754,18.7,18.7,0,0,0,4.114,3.438,32.664,32.664,0,1,1,24.084,0,18.707,18.707,0,0,0,4.113-3.437,23.5,23.5,0,0,0,4.514-7.754A36.364,36.364,0,0,0,55.229,43.9a43.585,43.585,0,0,0,.193-8.873.781.781,0,0,0-.778-.7.8.8,0,0,0-.083,0,.783.783,0,0,0-.7.861,42.348,42.348,0,0,1-.2,8.558,34.722,34.722,0,0,1-1.777,7.661,21.934,21.934,0,0,1-4.2,7.223,17.115,17.115,0,0,1-5.993,4.3,20.176,20.176,0,0,1-4.69,1.348l.02-.02.02-.02c1.528-1.554,2.8-4.078,3.773-7.5a59.271,59.271,0,0,0,1.763-9.655,108.391,108.391,0,0,0,.6-11.989.786.786,0,0,0-.782-.77h-.014a.783.783,0,0,0-.769.8,106.184,106.184,0,0,1-.592,11.793c-.886,8.126-2.648,13.738-5.1,16.228a4.621,4.621,0,0,1-2.444,1.4V35.109a.783.783,0,0,0-1.566,0V64.547Z" transform="translate(3.908 0.525)"/>
  </g>
</svg>
