<svg xmlns="http://www.w3.org/2000/svg" width="100" height="103.51" viewBox="0 0 100 103.51">
  <g id="グループ_28" data-name="グループ 28" transform="translate(-332 -1564)">
    <path id="パス_228" data-name="パス 228" d="M50,0A50,50,0,1,1,0,50,50,50,0,0,1,50,0Z" transform="translate(332 1564)" fill="#6c7e64" opacity="0.8"/>
    <path id="交差_1" data-name="交差 1" d="M0,22.732A34.664,34.664,0,0,1,32.348,0,34.656,34.656,0,0,1,64.542,22.326,43.363,43.363,0,0,1,32.088,36.942,43.345,43.345,0,0,1,0,22.732Z" transform="translate(350 1630.568)" fill="#fff"/>
    <ellipse id="楕円形_12" data-name="楕円形 12" cx="21.724" cy="22.165" rx="21.724" ry="22.165" transform="translate(360.585 1586.766)" fill="#fff"/>
  </g>
</svg>
